<?xml version="1.0" encoding="UTF-8"?>
<svg xmlns="http://www.w3.org/2000/svg" xmlns:xlink="http://www.w3.org/1999/xlink" width="214pt" height="16pt" viewBox="0 0 214 16" version="1.1">
<g id="surface1">
<path style=" stroke:none;fill-rule:nonzero;fill:rgb(82.745098%,20%,33.72549%);fill-opacity:1;" d="M 13.820312 15.21875 L 6.023438 15.21875 L 6.023438 11.195312 L 0.703125 0.707031 L 9.304688 0.707031 L 9.714844 5.464844 L 10.300781 5.464844 L 10.710938 0.707031 L 19.191406 0.707031 L 13.847656 11.246094 L 13.847656 15.21875 Z M 13.820312 15.21875 "/>
<path style=" stroke:none;fill-rule:nonzero;fill:rgb(82.745098%,20%,33.72549%);fill-opacity:1;" d="M 23.972656 10.683594 L 17.320312 10.683594 L 17.320312 6.074219 L 23.972656 6.074219 Z M 23.972656 10.683594 "/>
<path style=" stroke:none;fill-rule:nonzero;fill:rgb(82.745098%,20%,33.72549%);fill-opacity:1;" d="M 48.921875 15.21875 L 41.875 15.21875 L 41.875 7.464844 L 41.292969 7.464844 L 40.152344 15.21875 L 33.765625 15.21875 L 32.621094 7.464844 L 32.0625 7.464844 L 32.0625 15.21875 L 25.140625 15.21875 L 25.140625 0.707031 L 35.925781 0.707031 L 36.484375 7.976562 L 37.066406 7.976562 L 37.625 0.707031 L 48.945312 0.707031 L 48.945312 15.21875 Z M 48.921875 15.21875 "/>
<path style=" stroke:none;fill-rule:nonzero;fill:rgb(82.745098%,20%,33.72549%);fill-opacity:1;" d="M 64.03125 5.339844 L 58.175781 5.339844 L 58.175781 6.4375 L 63.617188 6.4375 L 63.617188 9.511719 L 58.175781 9.511719 L 58.175781 10.609375 L 64.03125 10.609375 L 64.03125 15.242188 L 50.449219 15.242188 L 50.449219 0.707031 L 64.03125 0.707031 Z M 64.03125 5.339844 "/>
<path style=" stroke:none;fill-rule:nonzero;fill:rgb(82.745098%,20%,33.72549%);fill-opacity:1;" d="M 73.964844 15.21875 L 72.796875 7.828125 L 72.191406 7.828125 L 72.191406 15.21875 L 65.269531 15.21875 L 65.269531 0.707031 L 75.714844 0.707031 L 76.878906 8.097656 L 77.367188 8.097656 L 77.367188 0.707031 L 84.289062 0.707031 L 84.289062 15.21875 Z M 73.964844 15.21875 "/>
<path style=" stroke:none;fill-rule:nonzero;fill:rgb(82.745098%,20%,33.72549%);fill-opacity:1;" d="M 113.316406 15.21875 L 106.269531 15.21875 L 106.269531 7.464844 L 105.6875 7.464844 L 104.546875 15.21875 L 98.15625 15.21875 L 97.015625 7.464844 L 96.433594 7.464844 L 96.433594 15.21875 L 89.511719 15.21875 L 89.511719 0.707031 L 100.320312 0.707031 L 100.878906 7.976562 L 101.460938 7.976562 L 102.019531 0.707031 L 113.339844 0.707031 L 113.339844 15.21875 Z M 113.316406 15.21875 "/>
<path style=" stroke:none;fill-rule:nonzero;fill:rgb(82.745098%,20%,33.72549%);fill-opacity:1;" d="M 131.4375 9 C 131.4375 13.976562 129.347656 15.632812 123.105469 15.632812 C 116.8125 15.632812 114.652344 13.925781 114.652344 9 L 114.652344 0.707031 L 122.351562 0.707031 L 122.351562 8.660156 C 122.351562 9.828125 122.546875 10.21875 123.128906 10.21875 C 123.710938 10.21875 123.90625 9.851562 123.90625 8.660156 L 123.90625 0.707031 L 131.410156 0.707031 L 131.410156 9 Z M 131.4375 9 "/>
<path style=" stroke:none;fill-rule:nonzero;fill:rgb(82.745098%,20%,33.72549%);fill-opacity:1;" d="M 145.769531 6.4375 L 142.828125 6.4375 L 142.828125 15.21875 L 135.105469 15.21875 L 135.105469 6.4375 L 132.164062 6.4375 L 132.164062 0.707031 L 145.742188 0.707031 L 145.742188 6.4375 Z M 145.769531 6.4375 "/>
<path style=" stroke:none;fill-rule:nonzero;fill:rgb(82.745098%,20%,33.72549%);fill-opacity:1;" d="M 153.226562 13.144531 L 153.03125 15.21875 L 145.109375 15.21875 L 147.785156 0.707031 L 160.851562 0.707031 L 163.523438 15.21875 L 155.460938 15.21875 L 155.265625 13.144531 Z M 154.585938 5.367188 L 153.90625 5.367188 L 153.566406 9.242188 L 154.925781 9.242188 Z M 154.585938 5.367188 "/>
<path style=" stroke:none;fill-rule:nonzero;fill:rgb(82.745098%,20%,33.72549%);fill-opacity:1;" d="M 172.828125 15.21875 L 171.660156 7.828125 L 171.054688 7.828125 L 171.054688 15.21875 L 164.128906 15.21875 L 164.128906 0.707031 L 174.574219 0.707031 L 175.742188 8.097656 L 176.230469 8.097656 L 176.230469 0.707031 L 183.148438 0.707031 L 183.148438 15.21875 Z M 172.828125 15.21875 "/>
<path style=" stroke:none;fill-rule:nonzero;fill:rgb(82.745098%,20%,33.72549%);fill-opacity:1;" d="M 197.699219 6.4375 L 194.761719 6.4375 L 194.761719 15.21875 L 187.039062 15.21875 L 187.039062 6.4375 L 184.097656 6.4375 L 184.097656 0.707031 L 197.675781 0.707031 L 197.675781 6.4375 Z M 197.699219 6.4375 "/>
<path style=" stroke:none;fill-rule:nonzero;fill:rgb(82.745098%,20%,33.72549%);fill-opacity:1;" d="M 212.300781 0.902344 L 212.082031 6.246094 C 211.328125 5.683594 209.820312 5.339844 208.21875 5.339844 C 206.90625 5.339844 206.371094 5.558594 206.371094 6.171875 C 210.792969 6.171875 212.785156 7.488281 212.785156 10.78125 C 212.785156 14.292969 210.550781 15.660156 204.746094 15.660156 C 202.609375 15.660156 200.492188 15.464844 198.113281 15.050781 L 198.355469 9.460938 C 199.253906 10.050781 200.929688 10.414062 202.730469 10.414062 C 204.113281 10.414062 204.671875 10.195312 204.671875 9.5625 C 200.058594 9.5625 198.066406 8.292969 198.066406 5.097656 C 198.066406 1.65625 200.324219 0.292969 206.152344 0.292969 C 208.316406 0.292969 210.378906 0.488281 212.300781 0.902344 Z M 212.300781 0.902344 "/>
</g>
</svg>
