<?xml version="1.0" encoding="utf-8"?>
<!-- Generator: Adobe Illustrator 21.0.0, SVG Export Plug-In . SVG Version: 6.00 Build 0)  -->
<svg version="1.1" id="Layer_1" xmlns="http://www.w3.org/2000/svg" xmlns:xlink="http://www.w3.org/1999/xlink" x="0px" y="0px"
	 viewBox="0 0 881 66" style="enable-background:new 0 0 881 66;" xml:space="preserve">
<style type="text/css">
	.st0{fill:#D33356;}
</style>
<g>
	<path class="st0" d="M56.9,62.4H24.8V45.9L2.9,2.9h35.4L40,22.4h2.4l1.7-19.5H79l-22,43.2V62.4z"/>
	<path class="st0" d="M98.7,43.8H71.3V24.9h27.4V43.8z"/>
	<path class="st0" d="M201.4,62.4h-29V30.6h-2.4l-4.7,31.8H139l-4.7-31.8H132v31.8h-28.5V2.9h44.4l2.3,29.8h2.4l2.3-29.8h46.6V62.4z
		"/>
	<path class="st0" d="M263.6,21.9h-24.1v4.5h22.4V39h-22.4v4.5h24.1v19h-55.9V2.9h55.9V21.9z"/>
	<path class="st0" d="M304.5,62.4l-4.8-30.3h-2.5v30.3h-28.5V2.9h43l4.8,30.3h2V2.9H347v59.5H304.5z"/>
	<path class="st0" d="M466.5,62.4h-29V30.6h-2.4l-4.7,31.8h-26.3l-4.7-31.8h-2.4v31.8h-28.5V2.9H413l2.3,29.8h2.4l2.3-29.8h46.6
		V62.4z"/>
	<path class="st0" d="M541.1,36.9c0,20.4-8.6,27.2-34.3,27.2c-25.9,0-34.8-7-34.8-27.2v-34h31.7v32.6c0,4.8,0.8,6.4,3.2,6.4
		s3.2-1.5,3.2-6.4V2.9h30.9V36.9z"/>
	<path class="st0" d="M600.1,26.4H588v36h-31.8v-36h-12.1V2.9h55.9V26.4z"/>
	<path class="st0" d="M630.8,53.9l-0.8,8.5h-32.6l11-59.5h53.8l11,59.5H640l-0.8-8.5H630.8z M636.4,22h-2.8l-1.4,15.9h5.6L636.4,22z
		"/>
	<path class="st0" d="M711.5,62.4l-4.8-30.3h-2.5v30.3h-28.5V2.9h43l4.8,30.3h2V2.9H754v59.5H711.5z"/>
	<path class="st0" d="M813.9,26.4h-12.1v36H770v-36h-12.1V2.9h55.9V26.4z"/>
	<path class="st0" d="M874,3.7l-0.9,21.9c-3.1-2.3-9.3-3.7-15.9-3.7c-5.4,0-7.6,0.9-7.6,3.4c18.2,0,26.4,5.4,26.4,18.9
		c0,14.4-9.2,20-33.1,20c-8.8,0-17.5-0.8-27.3-2.5l1-22.9c3.7,2.4,10.6,3.9,18,3.9c5.7,0,8-0.9,8-3.5c-19,0-27.2-5.2-27.2-18.3
		c0-14.1,9.3-19.7,33.3-19.7C857.6,1.2,866.1,2,874,3.7z"/>
</g>
</svg>
