<?xml version="1.0" standalone="no"?>
<!DOCTYPE svg PUBLIC "-//W3C//DTD SVG 1.1//EN" "http://www.w3.org/Graphics/SVG/1.1/DTD/svg11.dtd" >
<svg xmlns="http://www.w3.org/2000/svg" xmlns:xlink="http://www.w3.org/1999/xlink" version="1.1">
<metadata></metadata>
<defs>
<font id="erasnormal" horiz-adv-x="88" >
<font-face units-per-em="2048" ascent="1638" descent="-410" />
<missing-glyph horiz-adv-x="43" />
<glyph horiz-adv-x="0" />
<glyph unicode="&#xd;" horiz-adv-x="681" />
<glyph unicode=" "  horiz-adv-x="43" />
<glyph unicode="&#x09;" horiz-adv-x="43" />
<glyph unicode="&#xa0;" horiz-adv-x="43" />
<glyph unicode="!" horiz-adv-x="206" d="M8 4v131h146v-131h-146zM23 238v1001h116v-1001h-116z" />
<glyph unicode="&#x22;" horiz-adv-x="440" d="M10 948v291h119v-291h-119zM260 948v291h121v-291h-121z" />
<glyph unicode="#" horiz-adv-x="1028" d="M14 354v88h191l88 355h-176v88h190l88 354h121l-92 -354h252l88 354h117l-86 -354h178v-88h-195l-86 -355h174v-88h-190l-86 -350h-119l88 350h-266l-88 -350h-117l88 350h-162zM322 442h251l89 355h-267z" />
<glyph unicode="$" horiz-adv-x="733" d="M8 180q201 -92 314 -92q180 0 217 178v23q0 31 -18.5 67.5t-52.5 74.5t-61.5 65.5t-69.5 64.5t-52 45q-23 23 -79 72t-87 79.5t-61.5 86t-34.5 119.5q0 4 -2.5 10t-2.5 10q0 98 80.5 175t186.5 97v164h121v-164q55 0 190 -45l14 -102q-139 45 -248 45q-104 0 -156 -49 t-52 -121q0 -109 88 -186q6 -6 57 -47t79 -66t80 -72t82.5 -83.5t65.5 -83t51.5 -90.5t16.5 -85q0 -4 -2 -15t-2 -17q-20 -92 -94 -150.5t-170 -83.5v-162h-121v162q-14 2 -50 5t-45.5 5t-35 5.5t-34.5 6.5t-28.5 8t-35 12t-33.5 15z" />
<glyph unicode="%" horiz-adv-x="1456" d="M18 885q10 182 78 283.5t187 101.5q129 0 204.5 -95.5t75.5 -289.5q0 -201 -66.5 -322t-213.5 -121q-78 0 -133.5 43t-82 114t-38 140.5t-11.5 145.5zM121 885q0 -51 5 -102.5t19.5 -117t50 -105.5t87.5 -40q178 0 178 365q0 170 -49.5 240.5t-114.5 70.5q-51 0 -89 -33 t-55.5 -84t-24.5 -99t-7 -95zM297 4l709 1251h102l-709 -1251h-102zM856 399q10 180 79 281.5t187 101.5q127 0 205 -96t78 -287q0 -201 -68.5 -320.5t-214.5 -119.5q-78 0 -133 43t-82.5 112.5t-39 139t-11.5 145.5zM963 399q0 -51 5 -102t19 -116.5t49 -106.5t86 -41 q176 -1 176 366q0 170 -47 240t-114.5 70t-109.5 -59.5t-53 -122t-11 -128.5z" />
<glyph unicode="&#x26;" horiz-adv-x="1222" d="M18 317q0 199 293 363q-131 156 -131 311q12 129 110.5 192.5t244.5 63.5q90 0 190 -22l29 -103q-111 37 -219 37q-111 0 -174.5 -53t-63.5 -137q0 -121 135 -275l428 -428q58 119 58 254h102q0 -76 -3 -112.5t-18.5 -93t-50.5 -119.5l219 -191h-147l-146 117 q-57 -66 -172.5 -105t-240.5 -39q-117 0 -217.5 38t-151.5 106q-74 104 -74 196zM135 303q0 -98 88 -168q102 -84 238 -84q100 0 197.5 43.5t138.5 100.5l-410 411q-109 -39 -180.5 -127t-71.5 -176z" />
<glyph unicode="'" horiz-adv-x="305" d="M8 930l86 295h162l-176 -295h-72z" />
<glyph unicode="(" horiz-adv-x="305" d="M18 418q1 372 136 821h88q-113 -418 -113 -815q0 -375 113 -830h-88q-135 438 -136 824z" />
<glyph unicode=")" horiz-adv-x="286" d="M8 -406q102 342 103 797q-1 439 -103 834h86q133 -406 133 -807q0 -383 -133 -824h-86z" />
<glyph unicode="*" horiz-adv-x="696" d="M14 991l45 88l248 -116l-28 276h106l-16 -262l249 102l29 -88l-262 -78l188 -204l-71 -58l-162 219l-178 -219l-60 58l177 204z" />
<glyph unicode="+" horiz-adv-x="1007" d="M18 414v106h414v410h103v-410h413v-106h-413v-410h-103v410h-414z" />
<glyph unicode="," horiz-adv-x="323" d="M10 -186l88 321h176l-176 -321h-88z" />
<glyph unicode="-" horiz-adv-x="538" d="M14 428v92h457v-92h-457z" />
<glyph unicode="." horiz-adv-x="206" d="M10 4v131h148v-131h-148z" />
<glyph unicode="/" horiz-adv-x="794" d="M8 4l602 1251h133l-618 -1251h-117z" />
<glyph unicode="0" horiz-adv-x="952" d="M14 651q0 307 120 470t308 163q129 0 222.5 -68.5t138.5 -177t63.5 -211t18.5 -205t-16.5 -201.5t-58.5 -207t-132 -174.5t-217 -66.5h-19q-231 0 -323.5 166t-104.5 512zM131 651q0 -293 79 -441.5t218 -148.5q322 0 322 525v80q0 147 -30 262.5t-101.5 191.5t-176.5 76 q-84 0 -148.5 -59.5t-97 -148.5t-49 -176t-16.5 -161z" />
<glyph unicode="1" horiz-adv-x="305" d="M18 1079v117l121 74h117v-1266h-131v1149z" />
<glyph unicode="2" horiz-adv-x="872" d="M4 4v102l397 443q260 272 261 438q0 156 -230 195q-10 0 -38.5 2t-39.5 2q-104 0 -336 -49l15 88q147 47 317 47q190 0 320.5 -68.5t130.5 -202.5q0 -162 -195 -378l-456 -531h632v-88h-778z" />
<glyph unicode="3" horiz-adv-x="890" d="M8 135q143 -66 309 -65q152 0 260.5 61.5t120.5 179.5v37q0 127 -105.5 187.5t-266.5 60.5q-78 0 -113 -4v102q12 0 39 -1t41 -1q346 0 362 238v14q0 125 -92 179.5t-233 54.5q-88 0 -264 -25l14 86q139 31 254 31q195 0 323.5 -80t128.5 -227v-50q-10 -111 -84.5 -174 t-179.5 -88q51 -10 84 -20t80 -34t74.5 -55.5t48 -88t20.5 -127.5q0 -158 -132 -253.5t-343 -95.5q-156 0 -331 56z" />
<glyph unicode="4" horiz-adv-x="911" d="M4 442v121l471 676h162v-704h209v-93h-209v-438h-117v438h-516zM92 535h428v618z" />
<glyph unicode="5" horiz-adv-x="854" d="M4 106q168 -47 281 -47q170 0 272 80t109 215v37q0 119 -97.5 178.5t-269.5 59.5q-125 0 -252 -23l31 633h676v-86h-559l-31 -444q25 0 76 2t77 2q479 0 480 -340v-19q-2 -109 -51.5 -187.5t-130 -120.5t-168 -60.5t-181.5 -18.5q-164 0 -248 37z" />
<glyph unicode="6" horiz-adv-x="929" d="M18 387q0 141 62 307q10 27 22.5 54.5t30 59.5t30.5 56.5t38.5 63.5t39 59.5t45 64.5t43 60t47.5 65.5t44 61.5h133l-98 -147q-100 -147 -147.5 -228.5t-106 -216.5t-62.5 -233q0 -6 -2 -22.5t-2 -22.5q0 -129 70.5 -218.5t214.5 -89.5q154 0 230.5 83t76.5 196 q0 168 -73.5 230.5t-196.5 62.5q-33 0 -94.5 -5t-77.5 -5l45 86q74 16 131 16q72 0 138.5 -18.5t127.5 -58.5t98 -114.5t37 -175.5v-18q-6 -104 -48 -180t-110.5 -114t-141.5 -55.5t-156 -17.5q-184 0 -286 115t-102 299z" />
<glyph unicode="7" horiz-adv-x="790" d="M8 1167v88h735v-102l-473 -1149h-145l500 1163h-617z" />
<glyph unicode="8" horiz-adv-x="952" d="M14 311q0 258 250 326q-221 94 -221 311q0 160 122 241t277 81q147 0 271.5 -78t124.5 -234v-45q-10 -117 -66.5 -176t-153.5 -100q147 -23 207 -103.5t60 -222.5q0 -53 -22.5 -108.5t-71 -108.5t-139.5 -87t-210 -34q-117 0 -201.5 31t-129.5 84t-68 107.5t-29 115.5z M131 311q0 -106 96.5 -178t214.5 -72q160 0 241 87.5t81 191.5q0 238 -322 238q-170 0 -240.5 -68t-70.5 -199zM176 913q0 -109 64.5 -178t201.5 -69q121 0 202 75.5t81 165.5q0 4 -2 19.5t-2 21.5v21q0 78 -68.5 145.5t-195.5 67.5q-281 0 -281 -269z" />
<glyph unicode="9" horiz-adv-x="907" d="M4 893q0 176 133 283.5t299 107.5q387 0 412 -399v-23q0 -147 -121 -415.5t-248 -442.5h-164q86 117 133.5 186.5t124 198.5t115.5 247t39 220q0 152 -68.5 241t-207.5 99h-31q-100 0 -187.5 -78t-93.5 -219q0 -2 -2 -10t-2 -10q0 -115 82 -180.5t215 -65.5q76 0 193 33 l-43 -103q-94 -23 -172 -22q-100 0 -183.5 26.5t-150 104.5t-68.5 198q0 4 -2 11.5t-2 11.5z" />
<glyph unicode=":" horiz-adv-x="225" d="M14 4v131h148v-131h-148zM14 782v131h148v-131h-148z" />
<glyph unicode=";" horiz-adv-x="323" d="M10 -186l88 307h162l-162 -307h-88zM129 782v148h131v-148h-131z" />
<glyph unicode="&#x3c;" horiz-adv-x="970" d="M4 385v150l899 395v-133l-811 -340l811 -351v-133z" />
<glyph unicode="=" horiz-adv-x="989" d="M4 209v117h928v-117h-928zM18 563v117h914v-117h-914z" />
<glyph unicode="&#x3e;" horiz-adv-x="989" d="M18 -10v131l809 354l-809 381v135l914 -428v-164z" />
<glyph unicode="?" horiz-adv-x="794" d="M18 1167l15 103q168 29 282 28q117 0 207 -22.5t153.5 -84t63.5 -157.5q-4 -82 -38.5 -154.5t-82 -127t-94.5 -104.5t-78.5 -106.5t-31.5 -113.5v-205h-117v252q0 53 81 155.5t163 211t82 178.5q0 76 -52.5 121t-112 57t-132.5 12q-133 0 -308 -43zM283 4v131h145v-131 h-145z" />
<glyph unicode="@" horiz-adv-x="1361" d="M10 651q0 262 183.5 454.5t463.5 192.5q115 0 216.5 -23.5t196.5 -76.5t157.5 -155.5t79.5 -245.5q0 -12 1 -39t1 -37q0 -88 -29 -158.5t-74 -113.5t-105.5 -72t-118.5 -40t-120 -11v413q-43 -33 -159.5 -64.5t-197.5 -72.5t-81 -113q0 -109 158 -108q74 0 194 33 l-31 -88q-63 -27 -141 -27q-113 0 -200 47t-87 143q0 160 209 220q96 14 218 65t122 115q0 4 -2 13t-2 11q-23 74 -182 74q-133 0 -274 -57l18 90q90 47 238 47q119 0 205.5 -42t86.5 -128v-483q111 0 178.5 93t67.5 224q0 180 -127 324.5t-371 154.5q-154 0 -280.5 -58 t-209.5 -187t-83 -314q0 -262 132 -419.5t382 -170.5q319 0 473 265h117q-72 -172 -234.5 -262.5t-324.5 -90.5q-334 12 -492.5 184.5t-171.5 493.5z" />
<glyph unicode="A" horiz-adv-x="1320" d="M14 4l590 1251h160l502 -1251h-148l-221 588h-487l-248 -588h-148zM438 680h428l-190 487z" />
<glyph unicode="B" horiz-adv-x="929" d="M14 4v1251h428q180 0 282.5 -74.5t102.5 -222.5v-28q-27 -217 -237 -279q131 -8 205.5 -102t74.5 -209v-29q-14 -311 -401 -311q-12 0 -35.5 2t-34.5 2h-385zM145 92h283q45 0 91 8.5t98.5 30t85 69.5t32.5 117v23v18q0 76 -39 130.5t-96 77t-99 31.5t-73 9h-283v-514z M145 694h209q143 0 230.5 48.5t107.5 187.5q0 33 -2 54.5t-14 60t-37 62t-75 42t-122 18.5h-297v-473z" />
<glyph unicode="C" horiz-adv-x="1087" d="M8 623q8 328 183.5 485.5t488.5 157.5q147 0 301 -27l29 -131q-176 51 -344 51q-240 0 -383.5 -130t-143.5 -406q0 -4 -2 -13.5t-2 -13.5q0 -276 151.5 -408.5t387.5 -132.5q174 0 350 66l-14 -117q-168 -37 -334 -37q-322 0 -495 173.5t-173 482.5z" />
<glyph unicode="D" horiz-adv-x="1185" d="M14 4v1251h545q268 0 422 -148.5t154 -449.5v-34q0 -45 -4.5 -87t-20.5 -105.5t-44 -117t-80 -112t-122.5 -98.5t-179.5 -68.5t-242 -30.5h-428zM131 106h297q170 0 286.5 44.5t177 126t85 175t24.5 214.5q0 244 -107.5 372.5t-377.5 128.5h-385v-1061z" />
<glyph unicode="E" horiz-adv-x="831" d="M4 4v1251h764v-88h-633v-487h574v-88h-574v-500h619v-88h-750z" />
<glyph unicode="F" horiz-adv-x="813" d="M18 4v1251h736v-88h-604v-487h544v-88h-544v-588h-132z" />
<glyph unicode="G" horiz-adv-x="1226" d="M8 614q0 307 168 484.5t537 177.5q190 0 389 -37l14 -117q-223 63 -414 64q-295 0 -434 -159t-139 -404q8 -274 156.5 -419t398.5 -145q143 0 358 62v485h-297v88h429v-661q-252 -59 -480 -60q-657 0 -684 605q0 6 -1 19t-1 17z" />
<glyph unicode="H" horiz-adv-x="1105" d="M4 4v1251h131v-561h783v561h133v-1251h-133v602h-783v-602h-131z" />
<glyph unicode="I" horiz-adv-x="206" d="M10 4v1251h133v-1251h-133z" />
<glyph unicode="J" horiz-adv-x="696" d="M23 106q156 -47 251 -47q229 0 230 238v958h137v-958q0 -158 -92 -246t-260 -88q-111 0 -252 41z" />
<glyph unicode="K" horiz-adv-x="929" d="M4 4v1251h131v-1251h-131zM135 666l574 -662h165l-608 676l516 575h-145z" />
<glyph unicode="L" horiz-adv-x="813" d="M23 4v1251h131v-1163h604v-88h-735z" />
<glyph unicode="M" horiz-adv-x="1339" d="M4 4v1251h176l457 -1120l457 1120h190v-1251h-117v1104l-458 -1104h-131l-457 1104v-1104h-117z" />
<glyph unicode="N" horiz-adv-x="1167" d="M10 4v1251h162l811 -1120v1120h119v-1251h-162l-811 1104v-1104h-119z" />
<glyph unicode="O" horiz-adv-x="1380" d="M0 625q0 6 2 21.5t2 19.5q0 254 183.5 429t492.5 175q305 0 478 -169t173 -450q0 -74 -10 -145.5t-50 -170.5t-105.5 -173t-191.5 -129.5t-294 -59.5h-33q-313 0 -480 181.5t-167 470.5zM121 592q0 -59 13 -122.5t50 -135.5t94.5 -127t153.5 -92t219 -37q154 0 264.5 48 t169 130t85 173.5t26.5 193.5q0 262 -141.5 403t-388.5 141q-264 0 -404.5 -164.5t-140.5 -410.5z" />
<glyph unicode="P" horiz-adv-x="872" d="M14 4v1251h428q63 0 123 -14t118 -46t93 -94.5t35 -150.5v-20q-2 -82 -35 -143.5t-79 -96.5t-109.5 -57.5t-118.5 -29.5t-115 -7q-2 0 -135 10l-29 88q8 0 50.5 -7t66.5 -7q59 0 116.5 11t114 36t93.5 69t45 103q0 8 2 23.5t2 21.5q0 102 -79 155.5t-187 53.5h-269v-1149 h-131z" />
<glyph unicode="Q" horiz-adv-x="1402" d="M10 651q35 633 692 633q117 0 223.5 -33.5t199 -104.5t148.5 -198t62 -297q0 -416 -293 -559q4 0 15.5 -2t13.5 -2q37 0 84 12.5t107.5 34t91.5 29.5l-33 -131l-619 -43h-32q-180 0 -314.5 61.5t-206 162.5t-105.5 210.5t-34 226.5zM139 618q0 -66 17.5 -134t56.5 -138 t96.5 -125t143.5 -91t190 -38q4 0 15.5 -2t15.5 -2q233 0 381.5 145.5t148.5 384.5v33q0 229 -128 380t-388 151q-268 0 -396 -123t-149 -408q0 -4 -2 -17t-2 -16z" />
<glyph unicode="R" horiz-adv-x="872" d="M4 4v1251h457q137 0 236.5 -85t99.5 -222v-30q0 -147 -113 -232.5t-242 -85.5q-10 0 -29.5 3t-25.5 3l428 -602h-164l-442 662q12 0 41 -2t39 -2q184 0 276 59t101 192v27q0 123 -80 175t-185 52h-266v-1163h-131z" />
<glyph unicode="S" horiz-adv-x="772" d="M8 1001q0 76 34 130.5t91 81t118.5 38t133.5 11.5q143 0 244 -23l14 -102q-135 37 -262 37q-37 0 -92 -7q-72 -25 -111 -71.5t-39 -104.5q0 -37 19 -78q33 -70 111.5 -140.5t181 -146t149.5 -122.5q113 -119 113 -252q0 -109 -86 -186.5t-236 -92.5q-246 0 -364 60 l-17 117q160 -84 326 -84q111 0 180.5 52t69.5 165q-8 70 -69.5 140.5t-142.5 131.5t-162 123.5t-139.5 136.5t-62.5 148q0 4 -1 18t-1 20z" />
<glyph unicode="T" horiz-adv-x="989" d="M23 1167v88h909v-88h-393v-1163h-138v1163h-378z" />
<glyph unicode="U" horiz-adv-x="1146" d="M14 373q0 4 2 13t2 13v856h132v-841q0 -84 26.5 -148.5t66.5 -102.5t93 -61.5t101 -32t98 -8.5q78 0 146.5 16.5t130.5 54.5t99 109.5t37 172.5v841h131v-841q0 -229 -133 -335t-411 -106q-219 0 -370 102.5t-151 297.5z" />
<glyph unicode="V" horiz-adv-x="1302" d="M10 1255h133l443 -1163l530 1163h131l-590 -1251h-145z" />
<glyph unicode="W" horiz-adv-x="1851" d="M10 1255h133l383 -1134l308 676l-177 458h134l102 -307l149 307h132l-224 -458l254 -676l457 1134h131l-516 -1251h-146l-237 647l-293 -647h-149z" />
<glyph unicode="X" horiz-adv-x="1167" d="M10 4l469 647l-424 604h146l370 -501l365 501h149l-456 -604l473 -647h-166l-381 559l-397 -559h-148z" />
<glyph unicode="Y" horiz-adv-x="1069" d="M18 1255h146l338 -589l354 589h150l-443 -692v-559h-135v559z" />
<glyph unicode="Z" horiz-adv-x="970" d="M18 4v117l750 1046h-721v88h856v-118l-753 -1045h735v-88h-867z" />
<glyph unicode="[" horiz-adv-x="305" d="M8 -406v1661h248v-73h-131v-1516h131v-72h-248z" />
<glyph unicode="\" horiz-adv-x="813" d="M10 1239h133l602 -1235h-131z" />
<glyph unicode="]" horiz-adv-x="305" d="M23 -334h116v1516h-116v73h233v-1661h-233v72z" />
<glyph unicode="^" horiz-adv-x="970" d="M18 504l381 735h150l369 -735h-136l-307 663l-325 -663h-132z" />
<glyph unicode="_" horiz-adv-x="1009" d="M8 -469h942v-102h-942v102z" />
<glyph unicode="`" horiz-adv-x="323" d="M10 948l176 291h74l-88 -291h-162z" />
<glyph unicode="a" horiz-adv-x="854" d="M4 223q0 117 89 183.5t306 128.5q27 8 71 18t66.5 16t53.5 18.5t46 27t27.5 38t16.5 56.5v8q0 70 -74 102.5t-182 32.5q-184 0 -318 -55l15 102q141 45 299 45q162 0 269.5 -57.5t107.5 -177.5v-705h-117v545q-100 -61 -262 -107q-301 -59 -301 -219q0 -4 2 -13t2 -15 q10 -72 75.5 -106t157.5 -34q113 0 209 37l-14 -88q-82 -31 -223 -31q-59 0 -111.5 11.5t-100.5 38t-78 78t-32 122.5z" />
<glyph unicode="b" horiz-adv-x="970" d="M18 4v1251h117v-356q125 55 297 55q88 0 167 -22.5t149.5 -72.5t112.5 -143t42 -222v-19q0 -244 -122 -364.5t-292 -120.5q-106 0 -205.5 48t-148.5 126v-160h-117zM135 428q0 -158 86 -254t240 -96q68 0 120 18.5t100 63.5t74.5 136t26.5 224q0 166 -102 258t-279 92 q-119 0 -266 -43v-399z" />
<glyph unicode="c" horiz-adv-x="772" d="M8 475q2 137 41 234.5t107.5 148.5t144.5 73.5t168 22.5q111 0 229 -24l15 -119q-121 55 -248 55q-150 0 -245 -96t-95 -295q0 -193 89 -299t255 -106q86 0 244 51l-29 -117q-104 -18 -201 -18q-227 0 -351 120.5t-124 368.5z" />
<glyph unicode="d" horiz-adv-x="929" d="M0 424q0 4 2 15.5t2 17.5q6 141 59.5 244.5t136.5 156.5t169 76.5t180 23.5h8q110 0 197 -28v325h120v-1251h-120v176q-31 -78 -111 -142.5t-225 -64.5q-178 0 -298 122t-120 329zM117 451q0 -160 84 -275t217 -115t224 84t112 269v428q-85 24 -187 24h-8 q-76 0 -144.5 -17.5t-135 -56t-109.5 -116.5t-49 -187q0 -4 -2 -18t-2 -20z" />
<glyph unicode="e" horiz-adv-x="890" d="M18 475q0 244 132.5 366t310.5 122q172 0 278.5 -117t106.5 -273q0 -8 -2 -26.5t-2 -26.5h-707q0 -248 100.5 -353.5t258.5 -105.5q115 0 288 60l-14 -103q-141 -41 -274 -41q-215 0 -345.5 125t-130.5 373zM150 592h575v31q0 115 -68.5 181t-181.5 66 q-84 -4 -145.5 -26.5t-92 -46t-51 -69.5t-25.5 -67.5t-11 -68.5z" />
<glyph unicode="f" horiz-adv-x="618" d="M23 842v88h116v149q0 201 262 201q27 0 56.5 -2t57.5 -5t38 -3l14 -88q-100 18 -149 18q-158 0 -176 -135v-135h266v-88h-266v-838h-103v838h-116z" />
<glyph unicode="g" horiz-adv-x="989" d="M18 414q8 274 165 405t423 131q141 0 326 -37v-983q0 -368 -441 -368h-2q-125 0 -354 47v102q195 -61 344 -61q152 0 242 73.5t90 235.5v236q-92 -221 -379 -222q-182 0 -298 118t-116 323zM131 424q0 -174 96.5 -271.5t229.5 -97.5q139 0 246.5 107.5t107.5 294.5v370 q-115 33 -219 33q-195 0 -326 -109.5t-131 -308.5q0 -2 -2 -9t-2 -9z" />
<glyph unicode="h" horiz-adv-x="911" d="M4 4v1251h102v-501q63 102 166 153t217 51q147 0 259 -74.5t112 -189.5v-690h-121v684q0 74 -83 124t-191 50q-123 0 -222.5 -70.5t-121.5 -213.5v-574h-117z" />
<glyph unicode="i" horiz-adv-x="206" d="M10 1137v118h148v-118h-148zM27 4v926h116v-926h-116z" />
<glyph unicode="j" horiz-adv-x="636" d="M23 -303q129 -41 210 -41q199 0 213 231v1043h117v-1102q0 -33 -3 -59.5t-21.5 -67.5t-49 -67.5t-92 -46t-145.5 -19.5q-98 0 -229 26v103zM432 1137v118h146v-118h-146z" />
<glyph unicode="k" horiz-adv-x="776" d="M18 4v1251h103v-1251h-103zM121 535l457 -531h147l-473 531l399 395h-147z" />
<glyph unicode="l" horiz-adv-x="188" d="M23 4v1251h102v-1251h-102z" />
<glyph unicode="m" horiz-adv-x="1380" d="M4 4v926h117v-148q27 72 109.5 115t183.5 43q98 0 180 -43t115 -129q45 84 138 130t195 46q119 0 204 -61.5t85 -173.5v-705h-121v690q0 70 -60 109t-144 39q-109 0 -195 -66.5t-86 -183.5v-588h-119v676q0 76 -57 117t-139 41q-109 0 -199 -70t-90 -190v-574h-117z" />
<glyph unicode="n" horiz-adv-x="911" d="M4 4v926h117v-191q18 96 128.5 152.5t248.5 56.5q145 0 253.5 -66.5t108.5 -187.5v-690h-121v662q0 84 -87 142t-199 58q-131 0 -228.5 -91t-103.5 -271v-500h-117z" />
<glyph unicode="o" horiz-adv-x="989" d="M18 451q0 195 122 343t335 154q219 -12 338 -157.5t119 -348.5q0 -190 -118 -329.5t-325 -139.5h-14q-215 0 -336 142.5t-121 335.5zM121 442q12 -154 111.5 -267.5t256.5 -113.5q170 0 261.5 109t91.5 262q0 164 -98.5 294t-256.5 130h-12q-178 -10 -266 -127t-88 -287z " />
<glyph unicode="p" horiz-adv-x="929" d="M8 885q0 4 53.5 17t145.5 25.5t178 12.5q215 0 309 -70q84 -55 132 -172.5t48 -251.5q0 -150 -64.5 -272.5t-186.5 -169.5q-119 -27 -170 -27q-63 0 -121 18.5t-93.5 44.5t-62 51.5t-40 44t-15.5 18.5v-560h-103v1291h-10zM121 428q0 -139 89 -260t241 -121q23 0 98 14 q92 25 155.5 155t63.5 273q0 113 -44 201t-132 121q-125 49 -225 49q-99 0 -246 -63v-369z" />
<glyph unicode="q" horiz-adv-x="952" d="M14 428q0 139 48.5 242.5t132.5 162t186 87t223 28.5q111 0 281 -35v-1290h-121v557q-27 -88 -121 -141t-207 -53q-170 0 -296 112.5t-126 329.5zM125 442q0 -145 86 -256.5t242 -111.5q10 0 32.5 2t30.5 2q125 20 186.5 120.5t61.5 243.5v400q-10 2 -51 7t-83 9t-81 4 q-297 0 -404 -284q-20 -78 -20 -136z" />
<glyph unicode="r" horiz-adv-x="538" d="M8 4v926h117v-162q51 88 128 135t153 47q41 0 59 -2l14 -106q-33 14 -65 14q-98 0 -193.5 -85t-95.5 -222v-545h-117z" />
<glyph unicode="s" horiz-adv-x="636" d="M8 121q127 -55 266 -55q100 0 146 40q45 43 45 90.5t-39 93.5t-150.5 135t-150.5 124q-92 117 -92 201q0 90 88 136t223 46q123 -1 195 -19l14 -102q-98 37 -219 37q-78 0 -131 -28.5t-53 -88.5q0 -2 2 -10t2 -12q35 -78 94 -132.5t114.5 -83t118 -90t101.5 -151.5v-47 q0 -219 -316 -219q-135 0 -243 32z" />
<glyph unicode="t" horiz-adv-x="598" d="M23 842v88h116v178l117 14v-192h266v-88h-266v-647q12 -133 121 -134q51 0 162 45v-73q-10 -18 -63.5 -32.5t-113.5 -14.5q-86 0 -149 32.5t-74 102.5v721h-116z" />
<glyph unicode="u" horiz-adv-x="929" d="M14 297v633h117v-619q0 -109 67.5 -179.5t168.5 -70.5q2 0 10 -1t10 -1q139 0 251 103.5t112 236.5v531h120v-926h-120v176q-20 -86 -148.5 -151.5t-265.5 -65.5q-139 0 -230.5 81t-91.5 253z" />
<glyph unicode="v" horiz-adv-x="952" d="M18 930h117l322 -838l325 838h117l-364 -926h-150z" />
<glyph unicode="w" horiz-adv-x="1617" d="M10 930h119l322 -838l280 838h117l254 -838l321 838h136l-400 -926h-131l-237 807l-279 -807h-135z" />
<glyph unicode="x" horiz-adv-x="890" d="M23 4l335 500l-292 426h147l205 -352l237 352h131l-307 -426l350 -500h-131l-280 410l-279 -410h-116z" />
<glyph unicode="y" horiz-adv-x="1028" d="M18 -303q74 -55 146 -55q51 0 94 29.5t80 89t56.5 100.5t47.5 112l-364 957h131l307 -838l326 838h131l-471 -1116q-41 -104 -124 -185.5t-196 -81.5q-70 0 -149 33z" />
<glyph unicode="z" horiz-adv-x="737" d="M18 4v102l560 736h-531v88h633v-119l-545 -719h531v-88h-648z" />
<glyph unicode="{" horiz-adv-x="440" d="M8 369v73q14 10 47 10.5t51.5 18.5t18.5 78q0 457 14 545q8 51 22.5 74.5t67.5 40t162 16.5v-72q-8 0 -28.5 3t-28.5 3q-55 0 -73.5 -46t-18.5 -130v-434q0 -4 -1 -11.5t-8.5 -29t-19.5 -38.5t-39 -37.5t-63 -33.5q135 -47 135 -172q0 -6 -2 -22.5t-2 -24.5v-338 q0 -51 1 -73.5t5 -52t15 -39t30.5 -17.5t50.5 -8h47v-72h-51q-106 0 -160.5 34t-54.5 69v467q0 12 2 34.5t2 30.5q0 86 -29.5 118t-60.5 30.5t-31 5.5z" />
<glyph unicode="|" horiz-adv-x="188" d="M8 4v1235h117v-1235h-117z" />
<glyph unicode="}" horiz-adv-x="440" d="M10 -348q102 10 112.5 16t20.5 72q8 74 8.5 290t6.5 267q0 29 28.5 63.5t87.5 53.5q-47 8 -83.5 52t-36.5 97q0 4 2 15.5t2 13.5l-8 -43v6q0 12 4 186t4 258v95q-8 47 -24.5 60t-53.5 13h-53v72h53q27 0 49.5 -3t37.5 -6t28.5 -12.5t19.5 -12.5t15.5 -18.5t11.5 -19.5 t9 -22.5t9 -22.5v-530q0 -129 131 -150v-73q-12 0 -29.5 -2t-53.5 -19.5t-48 -50.5v-557q0 -145 -194 -146h-56v58z" />
<glyph unicode="~" horiz-adv-x="989" d="M18 428q18 2 44 41t72 76t118 37q100 0 268 -78q94 -53 156 -53q57 0 102 31.5t62 62.5l16 33l76 -74q-4 -6 -10.5 -18.5t-30 -41t-51 -51t-71.5 -41t-93 -18.5q-78 0 -172 51q-25 2 -105 43t-129 41q-96 0 -178 -129z" />
<glyph unicode="&#xa1;" horiz-adv-x="206" d="M8 797v133h146v-133h-146zM23 -317v1011h116v-1011h-116z" />
<glyph unicode="&#xa2;" horiz-adv-x="753" d="M4 606q0 188 99 340t251 162v162h103v-162h41q96 0 178 -29l16 -116q-25 14 -94.5 32.5t-140.5 18.5q-289 0 -340 -334q0 -8 -2 -26.5t-2 -24.5q0 -207 113.5 -306.5t271.5 -99.5q70 0 164 29l30 -88q-176 -29 -235 -29v-145h-103v145q-172 37 -261 170t-89 301z" />
<glyph unicode="&#xa3;" horiz-adv-x="948" d="M8 578l15 88h131q-20 33 -61.5 137t-41.5 127q-8 41 -8 65q0 188 213 244q70 23 201 23q137 0 227 -23l14 -102q0 6 -30.5 14t-83 15.5t-105.5 7.5q-119 0 -207 -39t-104 -129q0 -2 -2 -14.5t-2 -14.5q0 -51 19.5 -110.5t50 -123t36.5 -77.5h414l-14 -88h-371 q0 -27 8 -86.5t8 -90.5q0 -121 -102 -237q49 12 90 12q74 0 203 -55t211 -55q76 0 176 40l-31 -116q0 -4 -57 -4q-37 0 -106.5 2t-73.5 2q-39 12 -126 46t-148.5 52t-108.5 18q-33 0 -70 -18t-77 -47t-58 -37v117q0 10 26.5 30.5t57.5 48t57.5 94t26.5 159.5q0 39 -8 125 h-189z" />
<glyph unicode="&#xa4;" horiz-adv-x="1028" d="M4 252l102 88v4q0 4 -24.5 42t-48 101.5t-23.5 130.5q0 139 111 295l-117 107l88 74l103 -103q102 102 292 103q178 0 281 -103l121 103l88 -74l-107 -90q-8 -8 -8 -12q0 -6 23.5 -43t48 -98.5t24.5 -129.5q0 -139 -102 -307l107 -102l-74 -74l-107 102 q-14 -12 -38.5 -29.5t-101.5 -46t-153 -28.5q-152 0 -294 104l-103 -102zM121 586q0 -123 86 -213.5t254 -106.5q8 0 26.5 -3t24.5 -3q143 0 234.5 119t91.5 268q0 203 -144 283q-106 57 -211 57q-121 0 -211 -74.5t-122 -187.5q-29 -90 -29 -139z" />
<glyph unicode="&#xa5;" horiz-adv-x="1028" d="M4 1239h131l354 -588l338 588h150l-268 -428h194v-86h-252l-116 -176h354v-74h-354v-471h-117v471h-340v74h340l-107 176h-250v86h191z" />
<glyph unicode="&#xa6;" horiz-adv-x="245" d="M70 -10v1265h116v-1265h-116z" />
<glyph unicode="&#xa7;" horiz-adv-x="835" d="M10 438q1 45 19 111v-4q2 0 12 30.5t55 87t123 105.5q-59 31 -93 90.5t-34 124.5q0 115 87 202t241 87q100 0 213 -33l29 -117q-102 74 -209 74q-100 0 -169 -70.5t-69 -156.5q0 -51 32 -98.5t89 -73.5q211 -88 323.5 -204t112.5 -231q0 -166 -213 -284q53 -33 85 -99.5 t32 -140.5q0 -94 -54.5 -171t-164.5 -103q-74 -6 -113 -6q-152 0 -213 36l-14 103q154 -51 233 -51q143 0 195 123q18 55 18 92q0 66 -57 120t-138 95t-162 86t-138.5 115.5t-57.5 160.5zM113 432q0 -4 2 -15t2 -18q4 -41 52 -86t96 -73.5t126 -68.5t96 -50q80 14 131.5 94 t51.5 147q0 29 -8 37q-10 86 -126 166t-257 115q-59 -8 -112.5 -75.5t-53.5 -172.5z" />
<glyph unicode="&#xa8;" horiz-adv-x="458" d="M14 1122v103h131v-103h-131zM264 1122v103h135v-103h-135z" />
<glyph unicode="&#xa9;" horiz-adv-x="1402" d="M4 614q0 256 189.5 448.5t472.5 192.5h36q68 0 138.5 -13t150.5 -44t151.5 -92.5t119.5 -142.5q84 -172 84 -334q0 -244 -201 -479q-70 -80 -190.5 -124t-256.5 -44q-291 0 -483 168q-211 203 -211 464zM113 600q0 -193 124.5 -344.5t362.5 -194.5q16 0 52 -5t55 -5 q133 0 238.5 57.5t167 148.5t93 191.5t31.5 198.5q0 80 -18 150q-39 178 -192 275t-343 97q-119 0 -215 -32q-162 -55 -259 -208t-97 -329zM256 633q0 190 125 295.5t311 105.5q101 1 205 -28l29 -93q-123 35 -213 35q-96 0 -167 -35.5t-104.5 -92t-49 -110t-15.5 -104.5 q8 -176 85 -254t245 -78q70 0 204 23v-88q-113 -33 -202 -33q-78 0 -150 20.5t-139.5 64.5t-110.5 129t-49 202q0 8 -2 22.5t-2 18.5z" />
<glyph unicode="&#xaa;" horiz-adv-x="538" d="M0 846q0 53 41 131q25 12 80 30.5t96 30.5l43 13q121 25 121 86q0 29 -34 51t-81 22h-35l-176 -43v88q102 29 193 29q78 0 129 -14q113 -10 112 -195q0 -35 -3 -95t-3 -81v-174h-88v295q-164 -57 -223 -72q-35 -14 -56.5 -42.5t-21.5 -57.5q0 -45 49 -66q35 -10 54 -10 q29 0 62.5 7t54 16.5t20.5 15.5l-17 -102q0 -10 -84 -11q-88 0 -160.5 34t-72.5 114z" />
<glyph unicode="&#xab;" horiz-adv-x="598" d="M10 475l176 336h88l-145 -336l145 -311h-102zM274 475l179 336h88l-146 -336l146 -311h-103z" />
<glyph unicode="&#xac;" horiz-adv-x="970" d="M18 592v117h900v-486h-121v369h-779z" />
<glyph unicode="&#xad;" horiz-adv-x="538" d="M14 428v92h457v-92h-457z" />
<glyph unicode="&#xae;" horiz-adv-x="1361" d="M23 604q0 168 68.5 316.5t210.5 248t327 101.5h63q266 0 435 -187.5t182 -445.5v-37q0 -121 -38 -228.5t-113 -196.5t-198.5 -143.5t-283.5 -58.5h-29q-203 0 -348 93.5t-210.5 233.5t-65.5 304zM125 641q0 -229 147.5 -405.5t378.5 -176.5q4 0 12.5 1t12.5 1 q193 0 338 120t178 308q12 55 12 121q0 137 -61.5 266.5t-174 214.5t-247.5 91h-66q-246 -1 -422 -191q-39 -47 -64.5 -113.5t-31.5 -109.5l-6 -43q-6 -80 -6 -84zM410 266v740h252q121 0 185 -54.5t64 -128t-57 -137t-147 -80.5l251 -340h-120l-279 400q45 -8 66 -9 q88 0 141 47.5t53 106.5q0 49 -38 84t-105 35h-174v-664h-92z" />
<glyph unicode="&#xaf;" horiz-adv-x="43" />
<glyph unicode="&#xb0;" horiz-adv-x="417" d="M0 1200q0 68 50 120t126 52h14q82 -8 130.5 -56t48.5 -102v-18q0 -68 -51.5 -115t-127.5 -47q-88 0 -139 50.5t-51 115.5zM59 1196q0 -47 34 -74.5t97 -27.5q59 2 90 34.5t31 71.5q0 45 -34 79t-87 34q-63 0 -97 -34t-34 -83z" />
<glyph unicode="&#xb1;" d="M1616 -795z" />
<glyph unicode="&#xb2;" d="M1616 -795z" />
<glyph unicode="&#xb3;" d="M1616 -795z" />
<glyph unicode="&#xb4;" horiz-adv-x="323" d="M14 1006l88 278h162l-162 -278h-88z" />
<glyph unicode="&#xb6;" horiz-adv-x="813" d="M10 950q0 127 111.5 223.5t316.5 96.5h312v-1661h-88v1587h-117v-1587h-88v1071q-78 -18 -123 -18q-145 0 -234.5 87t-89.5 201zM102 948q0 -104 68 -160.5t160 -56.5q61 0 127 37v428q-66 0 -113 -7t-106.5 -28.5t-95.5 -76t-40 -136.5z" />
<glyph unicode="&#xb7;" horiz-adv-x="598" d="M14 311v516h531v-516h-531z" />
<glyph unicode="&#xb8;" horiz-adv-x="360" d="M14 -317l191 233h102l-117 -233h-176z" />
<glyph unicode="&#xb9;" d="M1616 -795z" />
<glyph unicode="&#xba;" horiz-adv-x="659" d="M14 977q0 115 83 204t214 89h23q113 0 181.5 -83t76.5 -196q0 -125 -75 -218t-220 -93q-135 23 -209 107.5t-74 189.5zM106 963q8 -76 53.5 -139.5t104.5 -63.5q2 0 15.5 4t17.5 4l8 -2q8 -2 10 -2q76 0 129.5 70.5t53.5 156.5q0 78 -47.5 134.5t-139.5 56.5h-28 q-176 0 -177 -219z" />
<glyph unicode="&#xbb;" horiz-adv-x="600" d="M18 164l146 325l-131 322h73l191 -322l-191 -325h-88zM266 164l152 325l-135 322h71l195 -322l-195 -325h-88z" />
<glyph unicode="&#xbc;" d="M1616 -795z" />
<glyph unicode="&#xbd;" d="M1616 -795z" />
<glyph unicode="&#xbe;" d="M1616 -795z" />
<glyph unicode="&#xbf;" horiz-adv-x="776" d="M10 -78q0 50 37 156l-4 -4h-2q0 4 62.5 91t76.5 101q92 94 119 157.5t27 154.5v131h106v-234q0 -66 -46 -131t-117.5 -143t-104.5 -140q-47 -84 -47 -127q0 -55 42 -95t90 -56t99 -28.5t53 -14.5q176 0 308 59v-88q-174 -45 -234 -45h-14q-78 0 -148.5 11.5t-143.5 37 t-116 78.5t-43 129zM311 797v133h150v-133h-150z" />
<glyph unicode="&#xc0;" horiz-adv-x="1320" d="M14 4l590 1251h160l502 -1251h-148l-221 588h-487l-248 -588h-148zM438 680h428l-190 487zM498 1624h178l119 -283h-103z" />
<glyph unicode="&#xc1;" horiz-adv-x="1320" d="M4 4l588 1251h162l501 -1251h-147l-223 588h-486l-249 -588h-146zM428 680h428l-190 487zM592 1327l88 283h147l-147 -283h-88z" />
<glyph unicode="&#xc2;" horiz-adv-x="1320" d="M14 4l590 1251h160l502 -1251h-148l-221 588h-487l-248 -588h-148zM438 680h428l-190 487zM483 1327l90 223h222l102 -223h-88l-117 135l-119 -135h-90z" />
<glyph unicode="&#xc3;" horiz-adv-x="1325" d="M10 4h148l248 588h487l223 -588h146l-502 1251h-160zM420 1401h16h72v76q10 45 47 45q31 0 135.5 -70t155.5 -70q70 0 104 95v118h-71q-4 -25 -6.5 -39t-4.5 -27t-5 -19.5t-4 -11.5t-6 -8t-8 -4t-11.5 -4t-14.5 -5l-8 -2q-14 0 -121.5 69.5t-163.5 69.5q-23 0 -32 -4 q-57 -18 -58 -88zM436 680l238 487l188 -487h-426z" />
<glyph unicode="&#xc4;" horiz-adv-x="1320" d="M14 4l590 1251h160l502 -1251h-148l-221 588h-487l-248 -588h-148zM438 680h428l-190 487zM559 1434v116h133v-116h-133zM809 1434v116h131v-116h-131z" />
<glyph unicode="&#xc5;" horiz-adv-x="1320" d="M14 4l590 1251h160l502 -1251h-148l-221 588h-487l-248 -588h-148zM438 680h428l-190 487zM559 1499q0 66 48 117t128 51h19q53 0 93 -48t50 -112v-32q0 -61 -41 -104.5t-121 -43.5t-128 52.5t-48 119.5zM618 1477q10 -33 47 -62t70 -29q51 0 81 36t30 81q0 41 -27.5 74 t-73.5 33h-10q-117 -16 -117 -133z" />
<glyph unicode="&#xc6;" horiz-adv-x="1576" d="M23 4l587 1251h916v-102h-711l103 -459h530v-116h-500l119 -486h426v-88h-530l-134 559h-411l-264 -559h-131zM475 694h326l-103 459z" />
<glyph unicode="&#xc7;" horiz-adv-x="1087" d="M8 623q8 328 183.5 485.5t488.5 157.5q147 0 301 -27l29 -131q-176 51 -344 51q-240 0 -383.5 -130t-143.5 -406q0 -4 -2 -13.5t-2 -13.5q0 -276 151.5 -408.5t387.5 -132.5q174 0 350 66l-14 -117q-168 -37 -334 -37q-322 0 -495 173.5t-173 482.5zM373 -362l194 233 h103l-117 -233h-180z" />
<glyph unicode="&#xc8;" horiz-adv-x="831" d="M4 4v1251h764v-88h-633v-487h574v-88h-574v-500h619v-88h-750zM150 1610h180l102 -283h-88z" />
<glyph unicode="&#xc9;" horiz-adv-x="831" d="M18 4v1251h764v-88h-632v-487h575v-88h-575v-500h618v-88h-750zM297 1327l90 283h162l-162 -283h-90z" />
<glyph unicode="&#xca;" horiz-adv-x="831" d="M8 4v1251h764v-88h-633v-487h574v-88h-574v-500h619v-88h-750zM197 1313l88 223h223l102 -223h-88l-116 135l-121 -135h-88z" />
<glyph unicode="&#xcb;" horiz-adv-x="831" d="M4 4v1251h764v-88h-633v-487h574v-88h-574v-500h619v-88h-750zM238 1358v104h135v-104h-135zM489 1358v104h134v-104h-134z" />
<glyph unicode="&#xcc;" horiz-adv-x="342" d="M10 1595h176l103 -282h-88zM129 4v1251h131v-1251h-131z" />
<glyph unicode="&#xcd;" horiz-adv-x="323" d="M10 4v1251h133v-1251h-133zM27 1341l86 283h161l-161 -283h-86z" />
<glyph unicode="&#xce;" horiz-adv-x="481" d="M10 1358l88 221h219l103 -221h-86l-119 135l-117 -135h-88zM129 4v1251h131v-1251h-131z" />
<glyph unicode="&#xcf;" horiz-adv-x="440" d="M10 1434v102h133v-102h-133zM129 4v1251h131v-1251h-131zM260 1434v102h131v-102h-131z" />
<glyph unicode="&#xd0;" d="M1616 -795z" />
<glyph unicode="&#xd1;" horiz-adv-x="1167" d="M10 4v1251h162l811 -1120v1120h119v-1251h-162l-811 1104v-1104h-119zM289 1372q0 193 92 207h20q18 0 38 -5t43.5 -16.5t39 -18.5t42 -23.5t36.5 -22.5q8 -4 23.5 -14.5t25.5 -15.5t21.5 -10t21.5 -5q53 0 53 131h78q4 -33 4 -66q0 -156 -125 -155q-68 14 -163 81.5 t-129 67.5q-29 -31 -29 -135h-92z" />
<glyph unicode="&#xd2;" horiz-adv-x="1380" d="M0 641q0 6 2 20.5t2 18.5q0 254 183.5 429t492.5 175q305 0 478 -169t173 -449q0 -72 -10 -143.5t-50 -171t-105.5 -173.5t-191.5 -129t-294 -59h-33q-313 0 -480 180t-167 471zM121 606q0 -59 13 -122.5t50 -135.5t94.5 -127t153.5 -92t219 -37t220.5 33t156.5 86 t98 126t54.5 146.5t15.5 153.5q0 262 -141.5 403.5t-388.5 141.5q-264 0 -404.5 -165t-140.5 -411zM504 1653h176l102 -281h-88z" />
<glyph unicode="&#xd3;" horiz-adv-x="1380" d="M0 641q0 6 2 20.5t2 18.5q0 254 183.5 429t492.5 175q305 0 478 -169t173 -449q0 -72 -10 -143.5t-50 -171t-105.5 -173.5t-191.5 -129t-294 -59h-33q-313 0 -480 180t-167 471zM121 606q0 -59 13 -122.5t50 -135.5t94.5 -127t153.5 -92t219 -37t220.5 33t156.5 86 t98 126t54.5 146.5t15.5 153.5q0 262 -141.5 403.5t-388.5 141.5q-264 0 -404.5 -165t-140.5 -411zM578 1341l88 283h161l-161 -283h-88z" />
<glyph unicode="&#xd4;" horiz-adv-x="1380" d="M0 641q0 6 2 20.5t2 18.5q0 254 183.5 429t492.5 175q305 0 478 -169t173 -449q0 -72 -10 -143.5t-50 -171t-105.5 -173.5t-191.5 -129t-294 -59h-33q-313 0 -480 180t-167 471zM121 606q0 -59 13 -122.5t50 -135.5t94.5 -127t153.5 -92t219 -37t220.5 33t156.5 86 t98 126t54.5 146.5t15.5 153.5q0 262 -141.5 403.5t-388.5 141.5q-264 0 -404.5 -165t-140.5 -411zM461 1401l88 223h219l106 -223h-92l-116 135l-117 -135h-88z" />
<glyph unicode="&#xd5;" horiz-adv-x="1380" d="M0 641q0 6 2 20.5t2 18.5q0 254 183.5 429t492.5 175q305 0 478 -169t173 -449q0 -72 -10 -143.5t-50 -171t-105.5 -173.5t-191.5 -129t-294 -59h-33q-313 0 -480 180t-167 471zM121 606q0 -59 13 -122.5t50 -135.5t94.5 -127t153.5 -92t219 -37t220.5 33t156.5 86 t98 126t54.5 146.5t15.5 153.5q0 262 -141.5 403.5t-388.5 141.5q-264 0 -404.5 -165t-140.5 -411zM369 1401q0 195 92 209h22q14 0 31.5 -4t32 -9.5t36 -17.5t32 -18.5t35 -20.5t30.5 -18q63 -41 92 -41q55 0 55 129h76q4 -33 4 -66q0 -158 -125 -158q-68 16 -163 83 t-130 67q-29 -29 -28 -135h-92z" />
<glyph unicode="&#xd6;" horiz-adv-x="1402" d="M10 641q0 6 2 20.5t2 18.5q0 254 183.5 429t494.5 175q303 0 475 -169t172 -449q0 -72 -10 -143.5t-49 -171t-104.5 -173.5t-190.5 -129t-293 -59h-35q-311 0 -479 181t-168 470zM131 606q0 -59 13.5 -122.5t50 -135.5t94 -127t154 -92t219 -37t220 33t157 86t98.5 126 t54 146.5t15 153.5q0 262 -141 403.5t-389 141.5q-264 0 -404.5 -165t-140.5 -411zM502 1462v103h131v-103h-131zM750 1462v103h131v-103h-131z" />
<glyph unicode="&#xd7;" horiz-adv-x="1482" d="M18 684v25q0 57 11.5 118.5t54.5 145.5t112.5 146.5t201.5 107.5t309 45q158 0 270 -17h442v-88h-340v-487h340v-88h-340v-500h340v-88h-340q-240 -27 -340 -27q-600 0 -696 418q-18 82 -25 289zM143 625q0 -133 39 -233.5t97.5 -158t139.5 -93.5t154.5 -48t153.5 -12 q156 0 236 26v1047q-197 14 -265 14q-113 0 -201.5 -19.5t-167.5 -66.5t-125 -137t-54 -219q0 -16 -3.5 -51t-3.5 -49z" />
<glyph unicode="&#xd8;" horiz-adv-x="1380" d="M-4 623q0 264 176 460.5t465 196.5q170 0 354 -70l88 131h117l-131 -174q125 -80 193.5 -229.5t68.5 -315t-66.5 -309t-213 -240t-349.5 -96.5q-166 0 -372 70l-88 -131h-103l117 176q-125 102 -190.5 241.5t-65.5 289.5zM121 610q0 -141 51 -261t139 -169l621 942 q-164 59 -307 60q-174 0 -292 -90.5t-169 -235.5q-43 -135 -43 -246zM387 135q174 -74 301 -74q100 0 201 45q178 66 248 279q49 119 49 258q0 135 -47 252.5t-133 183.5z" />
<glyph unicode="&#xd9;" horiz-adv-x="1146" d="M14 387q0 4 2 13.5t2 13.5v856h132v-842q0 -84 26.5 -148.5t66.5 -101.5t93 -60.5t101 -31.5t98 -8q78 0 146.5 16.5t130.5 53t99 108.5t37 172v842h131v-842q0 -229 -133 -333.5t-411 -104.5q-219 0 -370 101.5t-151 295.5zM358 1595h177l102 -282h-88z" />
<glyph unicode="&#xda;" horiz-adv-x="1146" d="M14 387q0 4 2 13.5t2 13.5v856h132v-842q0 -84 26.5 -148.5t66.5 -101.5t93 -60.5t101 -31.5t98 -8q78 0 146.5 16.5t130.5 53t99 108.5t37 172v842h131v-842q0 -229 -133 -333.5t-411 -104.5q-219 0 -370 101.5t-151 295.5zM461 1341l88 283h160l-160 -283h-88z" />
<glyph unicode="&#xdb;" horiz-adv-x="1146" d="M14 387q0 4 2 13.5t2 13.5v856h132v-842q0 -84 26.5 -148.5t66.5 -101.5t93 -60.5t101 -31.5t98 -8q78 0 146.5 16.5t130.5 53t99 108.5t37 172v842h131v-842q0 -229 -133 -333.5t-411 -104.5q-219 0 -370 101.5t-151 295.5zM326 1401l92 223h219l102 -223h-88l-116 135 l-117 -135h-92z" />
<glyph unicode="&#xdc;" horiz-adv-x="1128" d="M0 387q0 4 2 13.5t2 13.5v856h131v-842q0 -84 26.5 -148.5t66.5 -101.5t93.5 -60.5t101.5 -31.5t97 -8q78 0 145.5 16.5t130 53t99.5 108.5t37 172v842h133v-842q0 -229 -133 -333.5t-412 -104.5q-221 0 -370.5 101.5t-149.5 295.5zM326 1477v102h135v-102h-135z M578 1477v102h131v-102h-131z" />
<glyph unicode="&#xdd;" d="M1616 -795z" />
<glyph unicode="&#xde;" d="M1616 -795z" />
<glyph unicode="&#xdf;" horiz-adv-x="890" d="M4 4v1002q10 145 101.5 218.5t224.5 73.5q166 0 251 -51t85 -209v-61q-6 -47 -40 -75t-77 -48t-60 -43q-25 -35 -24 -61q0 -45 54 -87t126 -84t94 -75q35 -20 67 -101t32 -165q0 -106 -71 -179t-222 -73q-102 0 -234 32l-14 88q25 0 110 -22.5t132 -22.5q152 0 186 191 v31q0 96 -95 188t-184 135q-31 14 -52 55t-21 84q0 51 29.5 99.5t86.5 68.5q78 6 78 111q0 45 -18.5 91t-44.5 67q-53 37 -146 37q-100 0 -176 -60.5t-76 -181.5v-973h-102z" />
<glyph unicode="&#xe0;" horiz-adv-x="854" d="M4 223q0 117 89 183.5t306 128.5q27 8 71 18t66.5 16t53.5 18.5t46 27t27.5 38t16.5 56.5v8q0 70 -74 102.5t-182 32.5q-184 0 -318 -55l15 102q141 45 299 45q162 0 269.5 -57.5t107.5 -177.5v-705h-117v545q-100 -61 -262 -107q-301 -59 -301 -219q0 -4 2 -13t2 -15 q10 -72 75.5 -106t157.5 -34q113 0 209 37l-14 -88q-82 -31 -223 -31q-59 0 -111.5 11.5t-100.5 38t-78 78t-32 122.5zM238 1284h180l102 -278h-88z" />
<glyph unicode="&#xe1;" horiz-adv-x="872" d="M18 223q0 117 90.5 183.5t309.5 128.5q27 8 81 21t76.5 21.5t54.5 24.5t46 43t18 64v8q0 70 -72.5 102.5t-183.5 32.5q-184 0 -317 -55l14 102q141 45 301 45t267.5 -57.5t107.5 -177.5v-705h-117v545q-94 -59 -262 -107q-301 -59 -301 -219q0 -4 2 -13t2 -15 q10 -70 78 -105t160 -35q111 0 205 37l-15 -88q-82 -31 -223 -31q-131 0 -223 56.5t-99 193.5zM399 1006l90 278h162l-162 -278h-90z" />
<glyph unicode="&#xe2;" horiz-adv-x="854" d="M4 223q0 117 89 183.5t306 128.5q27 8 71 18t66.5 16t53.5 18.5t46 27t27.5 38t16.5 56.5v8q0 70 -74 102.5t-182 32.5q-184 0 -318 -55l15 102q141 45 299 45q162 0 269.5 -57.5t107.5 -177.5v-705h-117v545q-100 -61 -262 -107q-301 -59 -301 -219q0 -4 2 -13t2 -15 q10 -72 75.5 -106t157.5 -34q113 0 209 37l-14 -88q-82 -31 -223 -31q-59 0 -111.5 11.5t-100.5 38t-78 78t-32 122.5zM223 1051l88 219h224l102 -219h-88l-117 131l-121 -131h-88z" />
<glyph unicode="&#xe3;" horiz-adv-x="854" d="M4 223q0 117 89 183.5t306 128.5q27 8 71 18t66.5 16t53.5 18.5t46 27t27.5 38t16.5 56.5v8q0 70 -74 102.5t-182 32.5q-184 0 -318 -55l15 102q141 45 299 45q162 0 269.5 -57.5t107.5 -177.5v-705h-117v545q-100 -61 -262 -107q-301 -59 -301 -219q0 -4 2 -13t2 -15 q10 -72 75.5 -106t157.5 -34q113 0 209 37l-14 -88q-82 -31 -223 -31q-59 0 -111.5 11.5t-100.5 38t-78 78t-32 122.5zM150 1065q0 190 88 205h22q18 0 37.5 -5t42 -16.5t38 -19.5t44.5 -24.5t39 -22.5q63 -41 92 -41q53 0 53 129h74q4 -33 4 -66q0 -154 -121 -153 q-68 14 -165 79.5t-132 65.5q-29 -29 -28 -131h-88z" />
<glyph unicode="&#xe4;" horiz-adv-x="854" d="M4 223q0 117 89 183.5t306 128.5q27 8 71 18t66.5 16t53.5 18.5t46 27t27.5 38t16.5 56.5v8q0 70 -74 102.5t-182 32.5q-184 0 -318 -55l15 102q141 45 299 45q162 0 269.5 -57.5t107.5 -177.5v-705h-117v545q-100 -61 -262 -107q-301 -59 -301 -219q0 -4 2 -13t2 -15 q10 -72 75.5 -106t157.5 -34q113 0 209 37l-14 -88q-82 -31 -223 -31q-59 0 -111.5 11.5t-100.5 38t-78 78t-32 122.5zM238 1122v103h131v-103h-131zM489 1122v103h134v-103h-134z" />
<glyph unicode="&#xe5;" horiz-adv-x="872" d="M18 223q0 117 90.5 183.5t309.5 128.5q27 8 81 21t76.5 21.5t54.5 24.5t46 43t18 64v8q0 70 -72.5 102.5t-183.5 32.5q-184 0 -317 -55l14 102q141 45 301 45t267.5 -57.5t107.5 -177.5v-705h-117v545q-94 -59 -262 -107q-301 -59 -301 -219q0 -4 2 -13t2 -15 q10 -70 78 -105t160 -35q111 0 205 37l-15 -88q-82 -31 -223 -31q-131 0 -223 56.5t-99 193.5zM270 1200.5q0 67.5 48.5 119.5t127.5 52h15q82 -8 129 -54t47 -99v-23q0 -68 -50 -115t-126 -47q-90 0 -140.5 49.5t-50.5 117zM326 1196q0 -47 33.5 -74.5t101.5 -27.5 q55 2 88 34.5t33 71.5q0 43 -34 78t-87 35q-66 0 -100.5 -34t-34.5 -83z" />
<glyph unicode="&#xe6;" horiz-adv-x="1519" d="M8 213q0 14 5 56t5 71q0 8 21.5 37t69 67.5t100.5 59.5q25 8 81 23.5t93 25.5t88 29.5t92 40.5q106 47 107 131q0 61 -66.5 110t-161.5 49h-43q-29 -8 -124 -27.5t-154 -43.5l-15 88q135 66 314 65q139 0 236.5 -50t97.5 -148q43 88 134 141t191.5 53t175.5 -43 q66 -20 111 -69.5t64.5 -111.5t25.5 -108.5t6 -91.5v-32h-694q0 -215 87 -331t298 -126q31 0 124 19.5t114 37.5l-17 -117q0 -6 -56 -12t-107.5 -6t-57.5 4q-156 0 -261.5 45t-166.5 160q-59 111 -59 176q0 57 14 221q-49 -49 -157.5 -100t-168.5 -64q-8 -2 -131 -43 q-47 -18 -72.5 -61t-25.5 -92q0 -43 25 -96q55 -76 190 -76q90 0 283 47l-31 -88q-131 -29 -225 -29q-203 0 -289 88q-70 53 -70 121zM768 606h573v23q0 86 -63.5 180t-155.5 94q-29 0 -43 -4h-26q-37 0 -69 -9t-54.5 -20.5t-45 -35t-34.5 -39t-27.5 -49t-20.5 -47 t-18.5 -49.5t-15.5 -44z" />
<glyph unicode="&#xe7;" horiz-adv-x="772" d="M8 489q2 139 42 237.5t108.5 150t144.5 74t168 22.5q109 0 227 -25l15 -121q-117 53 -248 54q-150 0 -245 -96.5t-95 -295.5q0 -193 89 -299t255 -106q86 0 244 51l-29 -117q-125 -18 -201 -18q-227 0 -351 120.5t-124 368.5zM213 -303l193 219h88l-107 -219h-174z" />
<glyph unicode="&#xe8;" horiz-adv-x="890" d="M4 489q0 244 132 366t310 122q170 0 276.5 -116t106.5 -271q0 -8 -1 -26.5t-1 -28.5h-706q0 -246 100.5 -351.5t257.5 -105.5q121 0 289 57l-14 -102q-154 -41 -275 -41q-215 0 -345 124.5t-130 372.5zM135 606h574v31q0 115 -68 181.5t-180 66.5q-72 -4 -126 -17.5 t-88 -40t-54.5 -47t-33 -60.5t-15.5 -56.5t-9 -57.5zM209 1284h176l104 -278h-90z" />
<glyph unicode="&#xe9;" horiz-adv-x="890" d="M18 489q0 244 132.5 366t310.5 122q172 0 278.5 -116t106.5 -271q0 -8 -2 -26.5t-2 -28.5h-707q0 -246 100.5 -351.5t258.5 -105.5q121 0 288 57l-14 -102q-154 -41 -274 -41q-215 0 -345.5 124.5t-130.5 372.5zM150 606h575v31q0 115 -68.5 181.5t-181.5 66.5 q-84 -4 -145.5 -26.5t-92 -46.5t-51 -70t-25.5 -67.5t-11 -68.5zM399 1020l90 278h162l-162 -278h-90z" />
<glyph unicode="&#xea;" horiz-adv-x="890" d="M18 489q0 244 132.5 366t310.5 122q172 0 278.5 -116t106.5 -271q0 -8 -2 -26.5t-2 -28.5h-707q0 -246 100.5 -351.5t258.5 -105.5q121 0 288 57l-14 -102q-154 -41 -274 -41q-215 0 -345.5 124.5t-130.5 372.5zM150 606h575v31q0 115 -68.5 181.5t-181.5 66.5 q-84 -4 -145.5 -26.5t-92 -46.5t-51 -70t-25.5 -67.5t-11 -68.5zM266 1079l88 219h224l102 -219h-88l-117 131l-121 -131h-88z" />
<glyph unicode="&#xeb;" horiz-adv-x="890" d="M18 489q0 244 132.5 366t310.5 122q172 0 278.5 -116t106.5 -271q0 -8 -2 -26.5t-2 -28.5h-707q0 -246 100.5 -351.5t258.5 -105.5q121 0 288 57l-14 -102q-154 -41 -274 -41q-215 0 -345.5 124.5t-130.5 372.5zM150 606h575v31q0 115 -68.5 181.5t-181.5 66.5 q-84 -4 -145.5 -26.5t-92 -46.5t-51 -70t-25.5 -67.5t-11 -68.5zM283 1153v102h135v-102h-135zM535 1153v102h131v-102h-131z" />
<glyph unicode="&#xec;" horiz-adv-x="342" d="M10 1284h176l103 -278h-88zM143 4v926h117v-926h-117z" />
<glyph unicode="&#xed;" horiz-adv-x="305" d="M8 4v926h117v-926h-117zM8 1006l86 278h162l-162 -278h-86z" />
<glyph unicode="&#xee;" horiz-adv-x="481" d="M10 1065l88 219h219l103 -219h-86l-119 131l-117 -131h-88zM143 4v926h117v-926h-117z" />
<glyph unicode="&#xef;" horiz-adv-x="458" d="M14 1122v103h131v-103h-131zM145 4v926h119v-926h-119zM264 1122v103h131v-103h-131z" />
<glyph unicode="&#xf0;" d="M1616 -795z" />
<glyph unicode="&#xf1;" horiz-adv-x="911" d="M4 4v944h117v-209q37 92 153.5 150.5t247.5 58.5q133 0 229.5 -63.5t108.5 -190.5v-690h-121v690q0 74 -74.5 120t-175.5 46q-133 0 -240.5 -89t-127.5 -267v-500h-117zM164 1079q0 190 88 205h22q16 0 35 -4t32 -9t35.5 -17.5t33 -17.5t35 -20.5t30.5 -19.5 q63 -41 92 -41q55 0 56 129h71q4 -33 4 -65q0 -154 -120 -154q-68 14 -163.5 79.5t-131.5 65.5q-31 -29 -31 -131h-88z" />
<glyph unicode="&#xf2;" horiz-adv-x="989" d="M18 451q0 195 122 343t335 154q219 -12 338 -157.5t119 -348.5q0 -190 -118 -329.5t-325 -139.5h-14q-215 0 -336 142.5t-121 335.5zM121 442q12 -154 111.5 -267.5t256.5 -113.5q170 0 261.5 109t91.5 262q0 164 -98.5 294t-256.5 130h-12q-178 -10 -266 -127t-88 -287z M283 1284h178l102 -278h-88z" />
<glyph unicode="&#xf3;" horiz-adv-x="989" d="M18 451q0 195 122 343t335 154q219 -12 338 -157.5t119 -348.5q0 -190 -118 -329.5t-325 -139.5h-14q-215 0 -336 142.5t-121 335.5zM121 442q12 -154 111.5 -267.5t256.5 -113.5q170 0 261.5 109t91.5 262q0 164 -98.5 294t-256.5 130h-12q-178 -10 -266 -127t-88 -287z M399 1020l90 278h162l-162 -278h-90z" />
<glyph unicode="&#xf4;" horiz-adv-x="989" d="M18 451q0 195 122 343t335 154q219 -12 338 -157.5t119 -348.5q0 -190 -118 -329.5t-325 -139.5h-14q-215 0 -336 142.5t-121 335.5zM121 442q12 -154 111.5 -267.5t256.5 -113.5q170 0 261.5 109t91.5 262q0 164 -98.5 294t-256.5 130h-12q-178 -10 -266 -127t-88 -287z M283 1051l86 219h223l102 -219h-88l-117 131l-120 -131h-86z" />
<glyph unicode="&#xf5;" horiz-adv-x="970" d="M4 451q0 195 122 343t335 154q219 -12 338 -157.5t119 -348.5q0 -190 -118 -329.5t-325 -139.5h-14q-215 0 -336 142.5t-121 335.5zM106 442q12 -154 111.5 -267.5t257.5 -113.5q170 0 261 109t91 262q0 164 -98 294t-258 130h-10q-178 -10 -266.5 -127t-88.5 -287z M209 1065q0 190 88 205h20q18 0 39 -5t45.5 -16.5t39 -18.5t43 -25.5t36.5 -22.5q63 -41 90 -41q55 0 56 129h73q4 -33 4 -66q0 -154 -120 -153q-70 14 -166.5 79.5t-130.5 65.5q-29 -29 -29 -131h-88z" />
<glyph unicode="&#xf6;" horiz-adv-x="989" d="M8 451q0 197 122 344t335 153q219 -12 338 -157.5t119 -348.5q0 -190 -118 -329.5t-325 -139.5h-14q-215 0 -336 142.5t-121 335.5zM111 442q12 -154 111.5 -267.5t256.5 -113.5q170 0 260 109t90 262q0 166 -97 295t-257 129h-10q-178 -10 -266 -127t-88 -287zM270 1108 v102h131v-102h-131zM522 1108v102h133v-102h-133z" />
<glyph unicode="&#xf7;" horiz-adv-x="1658" d="M10 461q0 129 46 238.5t148.5 185.5t246.5 78q47 0 114.5 -22.5t149 -91.5t114.5 -169q53 111 167 197t247 86q164 0 259 -93.5t95 -291.5v-74h-690q0 -240 99.5 -346.5t255.5 -106.5q123 0 292 70l-28 -103q-164 -45 -283 -45q-147 0 -253.5 62.5t-141.5 202.5 q-51 -121 -146.5 -186.5t-281.5 -78.5h-33q-170 0 -273.5 147.5t-103.5 340.5zM94 475q0 -195 80 -311.5t232 -116.5q211 0 295.5 109.5t84.5 332.5q-16 111 -46.5 187t-77 114.5t-91.5 56t-106 23.5h-29q-143 0 -242.5 -103t-99.5 -292zM907 578h604q2 18 2 51 q0 96 -67.5 164.5t-188.5 76.5h-28q-90 0 -183.5 -73.5t-138.5 -218.5z" />
<glyph unicode="&#xf8;" horiz-adv-x="1007" d="M0 471q0 8 2 24.5t2 24.5q8 188 138 316.5t323 128.5q127 0 244 -52l59 121h102l-88 -164q166 -135 166 -401v-55q-6 -119 -48 -206t-106.5 -134t-133 -69.5t-144.5 -22.5q-127 0 -219 51l-74 -117h-102l88 145q-98 68 -153.5 178.5t-55.5 231.5zM84 487q0 -201 168 -337 l414 692q-66 51 -179 51q-119 0 -225 -63.5t-141 -163.5q-37 -100 -37 -179zM326 106q106 -47 200 -47q133 0 222.5 84t107.5 211q6 47 6 92q0 100 -34.5 198.5t-88.5 152.5z" />
<glyph unicode="&#xf9;" horiz-adv-x="929" d="M8 266v633h117v-616q0 -111 67.5 -180.5t169.5 -69.5q2 0 10.5 -2t12.5 -2q135 0 246.5 103.5t111.5 236.5v530h119v-926h-119v177q-23 -84 -150.5 -150t-262.5 -66q-139 0 -230.5 81t-91.5 251zM242 1284h178l102 -278h-86z" />
<glyph unicode="&#xfa;" horiz-adv-x="929" d="M8 266v633h117v-616q0 -111 67.5 -180.5t169.5 -69.5q2 0 10.5 -2t12.5 -2q135 0 246.5 103.5t111.5 236.5v530h119v-926h-119v177q-23 -84 -150.5 -150t-262.5 -66q-139 0 -230.5 81t-91.5 251zM377 991l88 279h160l-160 -279h-88z" />
<glyph unicode="&#xfb;" horiz-adv-x="929" d="M8 266v633h117v-616q0 -111 67.5 -180.5t169.5 -69.5q2 0 10.5 -2t12.5 -2q135 0 246.5 103.5t111.5 236.5v530h119v-926h-119v177q-23 -84 -150.5 -150t-262.5 -66q-139 0 -230.5 81t-91.5 251zM213 1051l86 219h223l103 -219h-86l-119 131l-121 -131h-86z" />
<glyph unicode="&#xfc;" horiz-adv-x="929" d="M14 266v633h117v-616q0 -109 67.5 -179.5t168.5 -70.5q2 0 10 -2t10 -2q139 0 251 103.5t112 236.5v530h120v-926h-120v177q-20 -84 -148.5 -150t-265.5 -66q-139 0 -230.5 81t-91.5 251zM248 1122v103h137v-103h-137zM502 1122v103h131v-103h-131z" />
<glyph unicode="&#xfd;" d="M1616 -795z" />
<glyph unicode="&#xfe;" d="M1616 -795z" />
<glyph unicode="&#xff;" horiz-adv-x="1028" d="M18 -303q74 -55 146 -55q51 0 94 29.5t80 89t56.5 100.5t47.5 112l-364 957h131l307 -838l326 838h131l-471 -1116q-41 -104 -124 -185.5t-196 -81.5q-70 0 -149 33zM311 1137v102h131v-102h-131zM563 1137v102h131v-102h-131z" />
<glyph unicode="&#x152;" horiz-adv-x="43" />
<glyph unicode="&#x153;" horiz-adv-x="43" />
<glyph unicode="&#x178;" horiz-adv-x="1028" d="M18 -303q74 -55 146 -55q51 0 94 29.5t80 89t56.5 100.5t47.5 112l-364 957h131l307 -838l326 838h131l-471 -1116q-41 -104 -124 -185.5t-196 -81.5q-70 0 -149 33zM311 1137v102h131v-102h-131zM563 1137v102h131v-102h-131z" />
<glyph unicode="&#x2c6;" horiz-adv-x="970" d="M18 504l381 735h150l369 -735h-136l-307 663l-325 -663h-132z" />
<glyph unicode="&#x2dc;" horiz-adv-x="989" d="M18 428q18 2 44 41t72 76t118 37q100 0 268 -78q94 -53 156 -53q57 0 102 31.5t62 62.5l16 33l76 -74q-4 -6 -10.5 -18.5t-30 -41t-51 -51t-71.5 -41t-93 -18.5q-78 0 -172 51q-25 2 -105 43t-129 41q-96 0 -178 -129z" />
<glyph unicode="&#x2000;" horiz-adv-x="833" />
<glyph unicode="&#x2001;" horiz-adv-x="1667" />
<glyph unicode="&#x2002;" horiz-adv-x="833" />
<glyph unicode="&#x2003;" horiz-adv-x="1667" />
<glyph unicode="&#x2004;" horiz-adv-x="555" />
<glyph unicode="&#x2005;" horiz-adv-x="416" />
<glyph unicode="&#x2006;" horiz-adv-x="277" />
<glyph unicode="&#x2007;" horiz-adv-x="277" />
<glyph unicode="&#x2008;" horiz-adv-x="208" />
<glyph unicode="&#x2009;" horiz-adv-x="333" />
<glyph unicode="&#x200a;" horiz-adv-x="92" />
<glyph unicode="&#x2010;" horiz-adv-x="538" d="M14 428v92h457v-92h-457z" />
<glyph unicode="&#x2011;" horiz-adv-x="538" d="M14 428v92h457v-92h-457z" />
<glyph unicode="&#x2012;" horiz-adv-x="538" d="M14 428v92h457v-92h-457z" />
<glyph unicode="&#x2013;" horiz-adv-x="794" d="M186 399q10 180 79 281.5t188 101.5q127 0 204.5 -96t77.5 -287q0 -201 -68.5 -320.5t-213.5 -119.5q-78 0 -133.5 43t-83 112.5t-39 139t-11.5 145.5zM293 399q0 -51 5 -102t19.5 -116.5t49 -106.5t86.5 -41q176 -1 176 366q0 170 -47 240t-113 70q-51 0 -89 -33 t-55.5 -84t-24.5 -98.5t-7 -94.5z" />
<glyph unicode="&#x2014;" horiz-adv-x="43" />
<glyph unicode="&#x2018;" horiz-adv-x="1478" d="M18 4v131h146v-131h-146zM651 4v131h150v-131h-150zM1272 4v131h147v-131h-147z" />
<glyph unicode="&#x2019;" horiz-adv-x="2129" d="M14 913q10 182 78 283.5t187 101.5q129 0 204.5 -95t75.5 -290q0 -438 -280 -438q-78 0 -133.5 42t-82 112.5t-38 140t-11.5 143.5zM117 913q0 -51 5 -102t19.5 -116.5t50 -105.5t87.5 -40q178 -1 178 364q0 172 -48.5 242t-115.5 70q-51 0 -89 -33t-55.5 -84t-24.5 -99 t-7 -96zM293 4l739 1280h103l-740 -1280h-102zM866 414q14 182 82 282.5t187 100.5q127 0 203.5 -96.5t76.5 -286.5q0 -201 -67.5 -321t-212.5 -120q-78 0 -134.5 43t-84 113t-39 139.5t-11.5 145.5zM973 414q0 -51 5 -102.5t19.5 -117t50 -106.5t87.5 -41q174 0 174 367 q0 170 -47.5 240.5t-112.5 70.5q-51 0 -89 -33t-55.5 -84t-24.5 -99t-7 -95zM1532 414q10 182 77.5 282.5t186.5 100.5q129 0 205 -95.5t76 -287.5q0 -440 -281 -441q-78 0 -133 42t-82 114t-38 140.5t-11 144.5zM1634 414q0 -51 5.5 -102.5t19.5 -117t50 -106.5t87 -41 q178 0 178 367q0 170 -47 240.5t-112 70.5q-70 0 -113 -59.5t-55.5 -123t-12.5 -128.5z" />
<glyph unicode="&#x201a;" horiz-adv-x="43" />
<glyph unicode="&#x201c;" horiz-adv-x="1558" d="M23 1182v88h587v-88h-252v-678h-102v678h-233zM670 504v766h116l312 -664l293 664h120v-766h-88v618l-282 -618h-103l-280 618v-618h-88z" />
<glyph unicode="&#x201d;" horiz-adv-x="440" d="M10 948v291h119v-291h-119zM260 948v291h121v-291h-121z" />
<glyph unicode="&#x201e;" horiz-adv-x="43" />
<glyph unicode="&#x2022;" horiz-adv-x="342" d="M10 1298h176l103 -278h-88z" />
<glyph unicode="&#x2026;" horiz-adv-x="43" />
<glyph unicode="&#x202f;" horiz-adv-x="333" />
<glyph unicode="&#x2039;" horiz-adv-x="970" d="M4 385v150l899 395v-133l-811 -340l811 -351v-133z" />
<glyph unicode="&#x203a;" horiz-adv-x="989" d="M18 -10v131l809 354l-809 381v135l914 -428v-164z" />
<glyph unicode="&#x205f;" horiz-adv-x="416" />
<glyph unicode="&#x2122;" horiz-adv-x="43" />
<glyph unicode="&#x25fc;" horiz-adv-x="931" d="M0 0v932h932v-932h-932z" />
<glyph unicode="&#xfb01;" horiz-adv-x="43" />
<glyph unicode="&#xfb02;" horiz-adv-x="43" />
</font>
</defs>
</svg>
